<svg width="32" height="32" viewBox="0 0 32 32" fill="none" xmlns="http://www.w3.org/2000/svg">
<g clip-path="url(#clip0_29_441)">
<path d="M24.6038 0C28.4201 0.416745 31.7944 3.4162 31.8964 7.47452C32.0395 13.1484 32.03 18.8089 31.898 24.5199C31.8086 28.3924 28.3924 31.8078 24.5207 31.898C18.8089 32.0316 13.15 32.0356 7.47294 31.898C3.41936 31.7999 0.404883 28.4217 0 24.603V7.36856C0 3.40118 3.63446 0.42228 7.36856 0H24.6038ZM17.2534 25.8722V15.9873L20.2758 15.9834L20.6293 11.9282L17.5064 11.9243L17.512 10.2304C17.5697 9.74645 17.8773 9.38506 18.3739 9.39139L20.5541 9.38269L20.5518 6.01315L17.3594 6.0171C16.7884 6.0171 16.2475 6.1199 15.7082 6.28122C14.0547 6.86166 13.2164 8.4377 13.203 10.1189L13.1888 11.9259L11.4182 11.929V15.9842L13.4481 15.9889V25.8793L17.2534 25.8722Z" fill="white"/>
</g>
<defs>
<clipPath id="clip0_29_441">
<rect width="32" height="32" fill="white"/>
</clipPath>
</defs>
</svg>
