<svg width="32" height="32" viewBox="0 0 32 32" fill="none" xmlns="http://www.w3.org/2000/svg">
<g clip-path="url(#clip0_29_432)">
<path d="M24.6038 0C28.4201 0.416745 31.7944 3.4162 31.8964 7.47452C32.0395 13.1484 32.03 18.8089 31.898 24.5199C31.8086 28.3924 28.3924 31.8078 24.5207 31.898C18.8089 32.0316 13.15 32.0356 7.47294 31.898C3.41936 31.7999 0.404883 28.4217 0 24.603V7.36856C0 3.40118 3.63446 0.42228 7.36856 0H24.6038ZM20.8222 26.3301C23.9008 26.3285 26.3285 23.7592 26.3285 20.7344V11.2853C26.3285 8.14195 23.7813 5.66441 20.6554 5.6652H11.3272C8.27717 5.6652 5.67153 8.06682 5.67153 11.1596V20.8586C5.67153 23.8723 8.20205 26.3364 11.2023 26.3348L20.823 26.3301H20.8222Z" fill="white"/>
<path d="M20.7025 24.4665L11.3301 24.4705C9.27959 24.4712 7.53906 22.877 7.53906 20.787V11.2113C7.53906 9.12444 9.27879 7.52467 11.3301 7.52784L20.7919 7.5397C22.7949 7.54207 24.4556 9.19956 24.4572 11.2066L24.4635 20.7261C24.4651 22.7971 22.802 24.4657 20.7025 24.4665ZM22.2825 10.6443C22.2825 10.1303 21.8658 9.71357 21.3517 9.71357C20.8377 9.71357 20.421 10.1303 20.421 10.6443C20.421 11.1583 20.8377 11.5751 21.3517 11.5751C21.8658 11.5751 22.2825 11.1583 22.2825 10.6443ZM20.6653 15.9988C20.6653 13.4208 18.5753 11.3307 15.9973 11.3307C13.4194 11.3307 11.3293 13.4208 11.3293 15.9988C11.3293 18.5767 13.4194 20.6668 15.9973 20.6668C18.5753 20.6668 20.6653 18.5767 20.6653 15.9988Z" fill="white"/>
<path d="M16.0004 18.8001C17.5469 18.8001 18.8006 17.5464 18.8006 15.9999C18.8006 14.4534 17.5469 13.1997 16.0004 13.1997C14.4539 13.1997 13.2002 14.4534 13.2002 15.9999C13.2002 17.5464 14.4539 18.8001 16.0004 18.8001Z" fill="white"/>
</g>
<defs>
<clipPath id="clip0_29_432">
<rect width="32" height="32" fill="white"/>
</clipPath>
</defs>
</svg>
