<svg width="32" height="32" viewBox="0 0 32 32" fill="none" xmlns="http://www.w3.org/2000/svg">
<g clip-path="url(#clip0_29_438)">
<path d="M24.6038 0C28.4201 0.416745 31.7944 3.4162 31.8964 7.47452C32.0395 13.1484 32.03 18.8089 31.898 24.5199C31.8086 28.3924 28.3924 31.8078 24.5207 31.898C18.8089 32.0316 13.15 32.0356 7.47294 31.898C3.41936 31.7999 0.404883 28.4217 0 24.603V7.36856C0 3.40118 3.63446 0.42228 7.36856 0H24.6038ZM20.2402 12.3885C21.7901 13.4671 23.522 14.0325 25.3843 14.0317L25.3811 10.334C22.5003 10.3111 20.2568 8.01067 20.2307 5.18519L16.5346 5.19468L16.529 19.9437C16.4935 21.817 14.8581 23.2049 13.0456 22.9827C11.2434 22.7612 9.99634 21.0231 10.3878 19.243C10.7761 17.4772 12.5609 16.4009 14.3417 16.9228L14.3393 13.1555C10.4297 12.6194 6.95339 15.5121 6.63866 19.3379C6.32076 23.2009 9.30915 26.5546 13.1642 26.7025C17.0288 26.8512 20.2418 23.7402 20.241 19.8195L20.2394 12.3893L20.2402 12.3885Z" fill="white"/>
</g>
<defs>
<clipPath id="clip0_29_438">
<rect width="32" height="32" fill="white"/>
</clipPath>
</defs>
</svg>
