<svg width="32" height="32" viewBox="0 0 32 32" fill="none" xmlns="http://www.w3.org/2000/svg">
<g clip-path="url(#clip0_29_416)">
<path d="M24.6038 0C28.4201 0.416745 31.7944 3.4162 31.8964 7.47452C32.0395 13.1484 32.03 18.8089 31.898 24.5199C31.8086 28.3924 28.3924 31.8078 24.5207 31.898C18.8089 32.0316 13.15 32.0356 7.47294 31.898C3.41936 31.7999 0.404883 28.4217 0 24.603V7.36856C0 3.40118 3.63446 0.42228 7.36856 0H24.6038ZM25.9062 16C25.9062 10.542 21.4817 6.11832 16.0245 6.11832C10.5673 6.11832 6.14284 10.5428 6.14284 16C6.14284 21.4572 10.5673 25.8817 16.0245 25.8817C21.4817 25.8817 25.9062 21.4572 25.9062 16Z" fill="white"/>
<path d="M18.3431 11.7363C16.7702 11.8858 15.2788 11.8858 13.7059 11.7363C13.9068 10.7462 14.1946 9.81547 14.6256 8.91555C14.8597 8.48062 15.1199 8.08206 15.4749 7.761C15.8237 7.47316 16.2262 7.47316 16.5741 7.75942C16.8968 8.0536 17.1395 8.41024 17.3625 8.80247C17.8323 9.72927 18.1296 10.7035 18.3423 11.7355L18.3431 11.7363Z" fill="white"/>
<path d="M16.5932 24.2233C16.2247 24.5333 15.8214 24.5262 15.4735 24.2336C15.1303 23.9252 14.8764 23.5409 14.6463 23.1218C14.2019 22.2116 13.9109 21.2674 13.7061 20.2638C15.2718 20.1152 16.7775 20.1152 18.3432 20.2638C18.1455 21.2231 17.8719 22.1254 17.4623 23.0039C17.2282 23.4539 16.9681 23.8722 16.5924 24.2233H16.5932Z" fill="white"/>
<path d="M12.0603 19.0446C10.8962 19.2834 9.74644 19.5491 8.60771 20.0663C8.03518 19.0312 7.70384 17.9525 7.58997 16.7134L11.8768 16.707C11.9132 17.4852 11.9638 18.1842 12.0595 19.0438L12.0603 19.0446Z" fill="white"/>
<path d="M11.8791 15.2874L7.59387 15.2906C7.68956 14.102 8.02722 12.9767 8.60608 11.936C9.74798 12.4429 10.893 12.7284 12.0594 12.9482C11.9709 13.7501 11.9171 14.4484 11.8791 15.2882V15.2874Z" fill="white"/>
<path d="M23.4489 20.061C22.3133 19.5715 21.1896 19.2686 19.9932 19.0599L20.1711 16.7104H24.4532C24.3615 17.8856 24.0286 18.9863 23.4497 20.061H23.4489Z" fill="white"/>
<path d="M24.4584 15.2868L20.1723 15.29C20.1343 14.496 20.0798 13.7614 19.9912 12.95C21.1584 12.7262 22.3074 12.4439 23.4454 11.937C24.0116 12.965 24.3484 14.0492 24.4584 15.2868Z" fill="white"/>
<path d="M18.7437 15.2885H13.3047C13.3324 14.5578 13.3846 13.8801 13.4692 13.1392C15.2057 13.3108 16.8427 13.3123 18.5784 13.1392C18.6623 13.8809 18.7145 14.5586 18.7429 15.2885H18.7437Z" fill="white"/>
<path d="M18.5832 18.8566C16.8403 18.6977 15.2057 18.6835 13.47 18.8638C13.3846 18.1181 13.3332 17.4411 13.3047 16.7104H18.7445L18.584 18.8566H18.5832Z" fill="white"/>
<path d="M22.6411 10.7245C21.6961 11.1444 20.7274 11.3777 19.7532 11.5382C19.4906 10.2437 19.13 9.08522 18.5029 7.91406C20.1225 8.39644 21.5269 9.35092 22.6419 10.7245H22.6411Z" fill="white"/>
<path d="M22.6382 21.2656C21.5619 22.6187 20.1353 23.5969 18.5 24.0848C19.139 22.9018 19.4909 21.7227 19.7566 20.4551C20.7316 20.6298 21.6631 20.8505 22.6382 21.2656Z" fill="white"/>
<path d="M12.2972 11.5422C11.3024 11.373 10.355 11.1318 9.40527 10.7333C10.4871 9.38497 11.8868 8.42021 13.5474 7.91016C12.9401 9.05284 12.5574 10.2264 12.2972 11.5422Z" fill="white"/>
<path d="M13.5383 24.0761C11.914 23.6009 10.493 22.6155 9.40723 21.268C10.3593 20.8631 11.3201 20.6204 12.2976 20.4614C12.5546 21.7433 12.912 22.8773 13.5383 24.0761Z" fill="white"/>
</g>
<defs>
<clipPath id="clip0_29_416">
<rect width="32" height="32" fill="white"/>
</clipPath>
</defs>
</svg>
