<svg width="36" height="36" viewBox="0 0 36 36" fill="none" xmlns="http://www.w3.org/2000/svg">
<g clip-path="url(#clip0_39_426)">
<path d="M28.45 7.01842C28.45 5.35308 27.1096 4 25.4576 4C23.8057 4 22.4653 5.34813 22.4653 7.01842C22.4653 8.68871 23.8057 10.0368 25.4576 10.0368C27.1096 10.0368 28.45 8.68871 28.45 7.01842Z" fill="black"/>
<path d="M17.6824 7.01842C17.6824 5.35308 16.342 4 14.69 4C13.0381 4 11.6977 5.34813 11.6977 7.01842C11.6977 8.68871 13.0381 10.0368 14.69 10.0368C16.342 10.0368 17.6824 8.68871 17.6824 7.01842Z" fill="black"/>
<path d="M2.70076 31.6018C2.49303 31.6018 2.28529 31.577 2.07261 31.5275C0.623413 31.1756 -0.271826 29.7134 0.0743988 28.2513C0.84104 25.0198 2.81947 20.7821 5.23315 17.1937C8.28983 12.6537 11.1635 10.3539 13.775 10.3539C15.3133 10.3539 17.4945 10.8892 19.1514 13.4517C20.0565 14.8493 20.566 16.4602 21.0111 17.8826C21.2288 18.5716 21.4315 19.2208 21.6244 19.6372C22.2476 21.0002 21.664 22.6159 20.3088 23.2454C18.9585 23.8749 17.351 23.2851 16.7278 21.9221C16.3964 21.1984 16.1392 20.3856 15.8672 19.5331C15.521 18.4427 15.1352 17.2036 14.6307 16.4255C14.2746 15.8753 14.0471 15.8059 13.8542 15.801C13.3942 15.9546 11.7372 17.1144 9.40269 20.7028C7.46878 23.6717 5.90582 27.0519 5.32218 29.5251C5.02542 30.7741 3.92244 31.6117 2.70076 31.6117V31.6018Z" fill="black"/>
<path d="M31.017 14.0563C28.7122 10.3539 25.4527 10.3539 24.3794 10.3539C22.2724 10.3539 20.7589 11.4245 19.6312 12.9065C19.6658 12.961 19.7054 13.0105 19.74 13.0651C20.6995 14.547 21.2189 16.2024 21.6838 17.6646C21.8965 18.3436 22.0943 18.9631 22.2674 19.3398C22.307 19.429 22.3416 19.5182 22.3713 19.6025C22.6483 18.7599 22.9648 17.8925 23.3308 17.164C23.9491 15.9447 24.3596 15.7911 24.3745 15.7861C25.1906 15.7861 25.7742 15.8654 26.4419 16.9409C27.347 18.3981 28.4253 21.7783 28.4253 29.6193C28.4253 31.121 29.6321 32.3354 31.1209 32.3354C32.6097 32.3354 33.8165 31.1161 33.8165 29.6193C33.8165 22.1847 32.8965 17.0946 31.0071 14.0563H31.017Z" fill="black"/>
<path d="M51.751 18.6461L45.969 28.8215H44.9798L39.178 18.6461V31.7457H37.6052V15.6574H39.2226L45.4546 26.6704L51.7312 15.6574H53.3288V31.7457H51.7559V18.6461H51.751Z" fill="black"/>
<path d="M57.0185 15.2015H58.5469V17.4666H57.0185V15.2015ZM57.0185 19.9398H58.5469V31.7458H57.0185V19.9398Z" fill="black"/>
<path d="M65.9264 24.7426C67.0739 24.7426 68.3797 24.9458 69.3442 25.2878V24.2916C69.3442 22.2991 68.1076 21.0303 66.0402 21.0303C64.8037 21.0303 63.5869 21.5061 62.2861 22.4131L61.7025 21.3227C63.211 20.2819 64.6701 19.7367 66.1984 19.7367C69.0771 19.7367 70.8774 21.5061 70.8774 24.4254V29.8873C70.8774 30.3185 71.0555 30.4969 71.4413 30.5217V31.7459C71.105 31.7905 70.8774 31.8153 70.7439 31.7905C69.9772 31.7657 69.5964 31.2007 69.5717 30.7051L69.5519 29.8427C68.4934 31.2007 66.6733 31.9739 64.9421 31.9739C62.6472 31.9739 60.9853 30.3631 60.9853 28.3459C60.9853 26.17 63.0082 24.7426 65.9314 24.7426H65.9264ZM69.3442 28.1228V26.398C68.3302 25.9916 67.2074 25.7884 66.1045 25.7884C63.8985 25.7884 62.4394 26.74 62.4394 28.2368C62.4394 29.5503 63.4979 30.7993 65.2983 30.7993C66.7623 30.7993 68.1324 30.1648 68.8298 29.2578C69.1661 28.8712 69.3491 28.4202 69.3491 28.1228H69.3442Z" fill="black"/>
<path d="M73.3702 25.8776C73.3702 22.5717 75.8235 19.7367 79.172 19.7367C82.5205 19.7367 84.9985 22.5717 84.9985 25.8776C84.9985 29.1835 82.5699 31.9739 79.172 31.9739C75.774 31.9739 73.3702 29.1637 73.3702 25.8776ZM79.172 30.6159C81.5115 30.6159 83.4454 28.4846 83.4454 25.8578C83.4454 23.2309 81.5115 21.0997 79.172 21.0997C76.8325 21.0997 74.9233 23.2507 74.9233 25.9024C74.9233 28.554 76.8325 30.6159 79.172 30.6159Z" fill="black"/>
<path d="M103.467 25.149C103.467 22.4081 102.592 21.1393 100.88 21.1393C99.169 21.1393 97.5961 22.542 97.0323 24.5394V31.7459H95.5039V25.149C95.5039 22.3635 94.673 21.1393 92.9419 21.1393C91.2107 21.1393 89.6824 22.4974 89.0938 24.5146V31.7459H87.5655V19.9399H88.9603V22.6163C89.9248 20.8023 91.5471 19.7367 93.4365 19.7367C95.3259 19.7367 96.6316 20.9807 96.8987 22.7749C97.977 20.7825 99.5053 19.7367 101.419 19.7367C104.051 19.7367 104.995 21.7539 104.995 24.8368V31.7509H103.467V25.149Z" fill="black"/>
<path d="M112.241 24.7426C113.389 24.7426 114.69 24.9458 115.659 25.2878V24.2916C115.659 22.2991 114.423 21.0303 112.355 21.0303C111.119 21.0303 109.902 21.5061 108.601 22.4131L108.018 21.3227C109.526 20.2819 110.985 19.7367 112.513 19.7367C115.392 19.7367 117.192 21.5061 117.192 24.4254V29.8873C117.192 30.3185 117.371 30.4969 117.751 30.5217V31.7459C117.415 31.7905 117.192 31.8153 117.054 31.7905C116.287 31.7657 115.907 31.2007 115.887 30.7051L115.867 29.8427C114.808 31.2007 112.988 31.9739 111.257 31.9739C108.962 31.9739 107.3 30.3631 107.3 28.3459C107.3 26.17 109.323 24.7426 112.251 24.7426H112.241ZM115.659 28.1228V26.398C114.645 25.9916 113.522 25.7884 112.42 25.7884C110.219 25.7884 108.754 26.74 108.754 28.2368C108.754 29.5503 109.813 30.7993 111.608 30.7993C113.072 30.7993 114.442 30.1648 115.14 29.2578C115.476 28.8712 115.659 28.4202 115.659 28.1228Z" fill="black"/>
<path d="M125.062 19.7365C127.02 19.7365 128.613 20.9359 129.493 22.4129V15.2064H131.022V29.8921C131.022 30.3233 131.18 30.5017 131.561 30.5265V31.7507C131.244 31.7953 131.066 31.8201 130.863 31.7953C130.211 31.7507 129.671 31.2055 129.671 30.6157V29.4608C128.751 31.0023 127.02 31.9737 125.309 31.9737C122.05 31.9737 119.71 29.0495 119.71 25.8774C119.71 22.5467 121.956 19.7365 125.062 19.7365ZM129.493 24.0436C128.91 22.4129 127.065 21.0945 125.443 21.0945C122.925 21.0945 121.283 23.4537 121.283 25.8774C121.283 28.4398 123.192 30.6157 125.645 30.6157C127.174 30.6157 129.246 29.3022 129.493 27.6914V24.0436Z" fill="black"/>
<path d="M138.49 24.7426C139.638 24.7426 140.939 24.9458 141.908 25.2878V24.2916C141.908 22.2991 140.671 21.0303 138.604 21.0303C137.368 21.0303 136.151 21.5061 134.85 22.4131L134.266 21.3227C135.775 20.2819 137.234 19.7367 138.767 19.7367C141.646 19.7367 143.446 21.5061 143.446 24.4254V29.8873C143.446 30.3185 143.624 30.4969 144.01 30.5217V31.7459C143.674 31.7905 143.446 31.8153 143.313 31.7905C142.546 31.7657 142.165 31.2007 142.145 30.7051L142.126 29.8427C141.067 31.2007 139.247 31.9739 137.516 31.9739C135.221 31.9739 133.559 30.3631 133.559 28.3459C133.559 26.17 135.582 24.7426 138.51 24.7426H138.49ZM141.908 28.1228V26.398C140.894 25.9916 139.771 25.7884 138.668 25.7884C136.462 25.7884 135.003 26.74 135.003 28.2368C135.003 29.5503 136.062 30.7993 137.857 30.7993C139.321 30.7993 140.691 30.1648 141.389 29.2578C141.725 28.8712 141.908 28.4202 141.908 28.1228Z" fill="black"/>
</g>
<defs>
<clipPath id="clip0_39_426">
<rect width="36" height="36" fill="white"/>
</clipPath>
</defs>
</svg>
