<svg width="145" height="29" viewBox="0 0 145 29" fill="none" xmlns="http://www.w3.org/2000/svg">
<path d="M28.45 3.01842C28.45 1.35308 27.1096 0 25.4576 0C23.8057 0 22.4653 1.34813 22.4653 3.01842C22.4653 4.68871 23.8057 6.03684 25.4576 6.03684C27.1096 6.03684 28.45 4.68871 28.45 3.01842Z" fill="white"/>
<path d="M17.6824 3.01842C17.6824 1.35308 16.342 0 14.69 0C13.0381 0 11.6977 1.34813 11.6977 3.01842C11.6977 4.68871 13.0381 6.03684 14.69 6.03684C16.342 6.03684 17.6824 4.68871 17.6824 3.01842Z" fill="white"/>
<path d="M2.70076 27.6018C2.49303 27.6018 2.28529 27.577 2.07261 27.5275C0.623413 27.1756 -0.271826 25.7134 0.0743988 24.2513C0.84104 21.0198 2.81947 16.7821 5.23315 13.1937C8.28983 8.65368 11.1635 6.35393 13.775 6.35393C15.3133 6.35393 17.4945 6.88922 19.1514 9.45165C20.0565 10.8493 20.566 12.4602 21.0111 13.8826C21.2288 14.5716 21.4315 15.2208 21.6244 15.6372C22.2476 17.0002 21.664 18.6159 20.3088 19.2454C18.9585 19.8749 17.351 19.2851 16.7278 17.9221C16.3964 17.1984 16.1392 16.3856 15.8672 15.5331C15.521 14.4427 15.1352 13.2036 14.6307 12.4255C14.2746 11.8753 14.0471 11.8059 13.8542 11.801C13.3942 11.9546 11.7372 13.1144 9.40269 16.7028C7.46878 19.6717 5.90582 23.0519 5.32218 25.5251C5.02542 26.7741 3.92244 27.6117 2.70076 27.6117V27.6018Z" fill="white"/>
<path d="M31.017 10.0563C28.7122 6.35393 25.4527 6.35393 24.3794 6.35393C22.2724 6.35393 20.7589 7.4245 19.6312 8.90645C19.6658 8.96097 19.7054 9.01054 19.74 9.06506C20.6995 10.547 21.2189 12.2024 21.6838 13.6646C21.8965 14.3436 22.0943 14.9631 22.2674 15.3398C22.307 15.429 22.3416 15.5182 22.3713 15.6025C22.6483 14.7599 22.9648 13.8925 23.3308 13.164C23.9491 11.9447 24.3596 11.7911 24.3745 11.7861C25.1906 11.7861 25.7742 11.8654 26.4419 12.9409C27.347 14.3981 28.4253 17.7783 28.4253 25.6193C28.4253 27.121 29.6321 28.3354 31.1209 28.3354C32.6097 28.3354 33.8165 27.1161 33.8165 25.6193C33.8165 18.1847 32.8965 13.0946 31.0071 10.0563H31.017Z" fill="white"/>
<path d="M51.751 14.6461L45.969 24.8215H44.9798L39.178 14.6461V27.7457H37.6052V11.6574H39.2226L45.4546 22.6704L51.7312 11.6574H53.3288V27.7457H51.7559V14.6461H51.751Z" fill="white"/>
<path d="M57.0185 11.2015H58.5469V13.4666H57.0185V11.2015ZM57.0185 15.9398H58.5469V27.7458H57.0185V15.9398Z" fill="white"/>
<path d="M65.9264 20.7426C67.0739 20.7426 68.3797 20.9458 69.3442 21.2878V20.2916C69.3442 18.2991 68.1076 17.0303 66.0402 17.0303C64.8037 17.0303 63.5869 17.5061 62.2861 18.4131L61.7025 17.3227C63.211 16.2819 64.6701 15.7367 66.1984 15.7367C69.0771 15.7367 70.8774 17.5061 70.8774 20.4254V25.8873C70.8774 26.3185 71.0555 26.4969 71.4413 26.5217V27.7459C71.105 27.7905 70.8774 27.8153 70.7439 27.7905C69.9772 27.7657 69.5964 27.2007 69.5717 26.7051L69.5519 25.8427C68.4934 27.2007 66.6733 27.9739 64.9421 27.9739C62.6472 27.9739 60.9853 26.3631 60.9853 24.3459C60.9853 22.17 63.0082 20.7426 65.9314 20.7426H65.9264ZM69.3442 24.1228V22.398C68.3302 21.9916 67.2074 21.7884 66.1045 21.7884C63.8985 21.7884 62.4394 22.74 62.4394 24.2368C62.4394 25.5503 63.4979 26.7993 65.2983 26.7993C66.7623 26.7993 68.1324 26.1648 68.8298 25.2578C69.1661 24.8712 69.3491 24.4202 69.3491 24.1228H69.3442Z" fill="white"/>
<path d="M73.3702 21.8776C73.3702 18.5717 75.8235 15.7367 79.172 15.7367C82.5205 15.7367 84.9985 18.5717 84.9985 21.8776C84.9985 25.1835 82.5699 27.9739 79.172 27.9739C75.774 27.9739 73.3702 25.1637 73.3702 21.8776ZM79.172 26.6159C81.5115 26.6159 83.4454 24.4846 83.4454 21.8578C83.4454 19.2309 81.5115 17.0997 79.172 17.0997C76.8325 17.0997 74.9233 19.2507 74.9233 21.9024C74.9233 24.554 76.8325 26.6159 79.172 26.6159Z" fill="white"/>
<path d="M103.467 21.149C103.467 18.4081 102.592 17.1393 100.88 17.1393C99.169 17.1393 97.5961 18.542 97.0323 20.5394V27.7459H95.5039V21.149C95.5039 18.3635 94.673 17.1393 92.9419 17.1393C91.2107 17.1393 89.6824 18.4974 89.0938 20.5146V27.7459H87.5655V15.9399H88.9603V18.6163C89.9248 16.8023 91.5471 15.7367 93.4365 15.7367C95.3259 15.7367 96.6316 16.9807 96.8987 18.7749C97.977 16.7825 99.5053 15.7367 101.419 15.7367C104.051 15.7367 104.995 17.7539 104.995 20.8368V27.7509H103.467V21.149Z" fill="white"/>
<path d="M112.241 20.7426C113.389 20.7426 114.69 20.9458 115.659 21.2878V20.2916C115.659 18.2991 114.423 17.0303 112.355 17.0303C111.119 17.0303 109.902 17.5061 108.601 18.4131L108.018 17.3227C109.526 16.2819 110.985 15.7367 112.513 15.7367C115.392 15.7367 117.192 17.5061 117.192 20.4254V25.8873C117.192 26.3185 117.371 26.4969 117.751 26.5217V27.7459C117.415 27.7905 117.192 27.8153 117.054 27.7905C116.287 27.7657 115.907 27.2007 115.887 26.7051L115.867 25.8427C114.808 27.2007 112.988 27.9739 111.257 27.9739C108.962 27.9739 107.3 26.3631 107.3 24.3459C107.3 22.17 109.323 20.7426 112.251 20.7426H112.241ZM115.659 24.1228V22.398C114.645 21.9916 113.522 21.7884 112.42 21.7884C110.219 21.7884 108.754 22.74 108.754 24.2368C108.754 25.5503 109.813 26.7993 111.608 26.7993C113.072 26.7993 114.442 26.1648 115.14 25.2578C115.476 24.8712 115.659 24.4202 115.659 24.1228Z" fill="white"/>
<path d="M125.062 15.7365C127.02 15.7365 128.613 16.9359 129.493 18.4129V11.2064H131.022V25.8921C131.022 26.3233 131.18 26.5017 131.561 26.5265V27.7507C131.244 27.7953 131.066 27.8201 130.863 27.7953C130.211 27.7507 129.671 27.2055 129.671 26.6157V25.4608C128.751 27.0023 127.02 27.9737 125.309 27.9737C122.05 27.9737 119.71 25.0495 119.71 21.8774C119.71 18.5467 121.956 15.7365 125.062 15.7365ZM129.493 20.0436C128.91 18.4129 127.065 17.0945 125.443 17.0945C122.925 17.0945 121.283 19.4537 121.283 21.8774C121.283 24.4398 123.192 26.6157 125.645 26.6157C127.174 26.6157 129.246 25.3022 129.493 23.6914V20.0436Z" fill="white"/>
<path d="M138.49 20.7426C139.638 20.7426 140.939 20.9458 141.908 21.2878V20.2916C141.908 18.2991 140.671 17.0303 138.604 17.0303C137.368 17.0303 136.151 17.5061 134.85 18.4131L134.266 17.3227C135.775 16.2819 137.234 15.7367 138.767 15.7367C141.646 15.7367 143.446 17.5061 143.446 20.4254V25.8873C143.446 26.3185 143.624 26.4969 144.01 26.5217V27.7459C143.674 27.7905 143.446 27.8153 143.313 27.7905C142.546 27.7657 142.165 27.2007 142.145 26.7051L142.126 25.8427C141.067 27.2007 139.247 27.9739 137.516 27.9739C135.221 27.9739 133.559 26.3631 133.559 24.3459C133.559 22.17 135.582 20.7426 138.51 20.7426H138.49ZM141.908 24.1228V22.398C140.894 21.9916 139.771 21.7884 138.668 21.7884C136.462 21.7884 135.003 22.74 135.003 24.2368C135.003 25.5503 136.062 26.7993 137.857 26.7993C139.321 26.7993 140.691 26.1648 141.389 25.2578C141.725 24.8712 141.908 24.4202 141.908 24.1228Z" fill="white"/>
</svg>
